<svg width="25" height="24" viewBox="0 0 25 24" fill="none" xmlns="http://www.w3.org/2000/svg">
<g id="Checkmark">
<path id="SF Symbol / checkmark" d="M7.33439 18.7756L7.3349 18.7748L15.1791 6.42324L15.1797 6.42237C15.3355 6.17139 15.4022 5.97055 15.4022 5.75537C15.4022 5.50484 15.3198 5.28911 15.1665 5.13577C15.0131 4.98243 14.7974 4.9 14.5469 4.9C14.3699 4.9 14.2217 4.92881 14.0892 5.00735C13.9579 5.08517 13.8521 5.20577 13.7485 5.36994L13.7483 5.37019L6.37084 17.1265L2.59117 12.1788C2.48245 12.0269 2.36889 11.9136 2.23741 11.839C2.10444 11.7635 1.96013 11.7315 1.79688 11.7315C1.53696 11.7315 1.3116 11.8209 1.15083 11.9792C0.989996 12.1377 0.9 12.3592 0.9 12.6118C0.9 12.8306 0.994296 13.0675 1.16213 13.2796C1.16219 13.2797 1.16225 13.2798 1.16232 13.2798L5.46957 18.7656C5.46967 18.7657 5.46977 18.7658 5.46988 18.766C5.59938 18.9343 5.73536 19.0651 5.89046 19.1536C6.04688 19.2428 6.21777 19.286 6.41211 19.286C6.80434 19.286 7.11751 19.11 7.33439 18.7756Z" fill="#A0C3FF" stroke="#A0C3FF" stroke-width="0.2"/>
</g>
</svg>
