<svg width="49" height="48" viewBox="0 0 49 48" fill="none" xmlns="http://www.w3.org/2000/svg">
<g id="image 9 (traced)" clip-path="url(#clip0_437_123)">
<g id="Black">
<path id="Vector" d="M26.7198 4.96875C26.3073 5.09062 25.9792 5.35312 25.7448 5.75625C25.5479 6.09375 25.2104 8.15625 22.8385 23.7094C20.9542 36.0469 20.176 41.3813 20.2135 41.6344C20.3073 42.1594 20.7573 42.7313 21.2635 42.9563C21.7979 43.1906 22.5385 43.1438 23.026 42.8438C23.776 42.3844 23.551 43.575 26.4948 24.2906C28.3792 11.9531 29.1573 6.61875 29.1198 6.36562C28.9417 5.325 27.7792 4.64062 26.7198 4.96875Z" fill="white"/>
<path id="Vector_2" d="M12.7604 10.575C12.3104 10.8188 0.901025 22.9031 0.769775 23.2688C0.62915 23.6719 0.638525 24.4125 0.7979 24.7781C0.863525 24.9469 3.50728 27.8156 6.66665 31.1625C12.9573 37.8188 12.7792 37.65 13.7541 37.575C14.6916 37.5 15.3104 36.8438 15.3666 35.8688C15.3948 35.4 15.3573 35.2219 15.1791 34.9031C15.0573 34.6875 12.751 32.175 10.0416 29.3063C7.33227 26.4469 5.11978 24.0563 5.11978 24C5.11978 23.9438 7.33227 21.5531 10.0416 18.6938C12.751 15.825 15.0573 13.3125 15.1791 13.0969C15.3573 12.7781 15.3948 12.6 15.3666 12.1313C15.301 11.1188 14.701 10.5094 13.6791 10.4344C13.2198 10.4063 13.0135 10.4344 12.7604 10.575Z" fill="white"/>
<path id="Vector_3" d="M35.1198 10.5094C34.7635 10.6125 34.2385 11.1094 34.0791 11.5031C33.8823 11.9719 33.9198 12.6656 34.1635 13.1062C34.276 13.3125 36.5823 15.825 39.2916 18.6938C42.001 21.5531 44.2135 23.9437 44.2135 24C44.2135 24.0562 42.001 26.4375 39.2916 29.3062C36.5823 32.175 34.276 34.6969 34.1541 34.9031C33.976 35.2219 33.9385 35.4 33.9666 35.8687C34.0229 36.8437 34.6416 37.5 35.5791 37.575C36.5635 37.6594 36.376 37.8187 42.6666 31.1625C45.826 27.8156 48.4698 24.9469 48.5354 24.7781C48.6104 24.6094 48.6666 24.2625 48.6666 24C48.6666 23.7375 48.6104 23.3906 48.5354 23.2219C48.4698 23.0531 45.826 20.1844 42.6666 16.8469C38.3073 12.225 36.8354 10.725 36.5354 10.5844C36.1323 10.3969 35.5885 10.3687 35.1198 10.5094Z" fill="white"/>
</g>
</g>
<defs>
<clipPath id="clip0_437_123">
<rect width="48" height="48" fill="white" transform="translate(0.666656)"/>
</clipPath>
</defs>
</svg>
