<svg width="49" height="48" viewBox="0 0 49 48" fill="none" xmlns="http://www.w3.org/2000/svg">
<g id="image 25 (traced)">
<g id="Black">
<path id="Vector" d="M23.1615 0.11248C17.049 0.796856 11.0959 4.12498 7.16775 9.04686C4.4115 12.4969 2.67712 16.6875 2.10525 21.2344C1.9365 22.5937 1.95525 25.6687 2.15212 27.0937C3.624 38.0156 12.1646 46.5094 23.0209 47.8594C24.3709 48.0187 27.2865 48.0469 28.6271 47.8969C33.9896 47.3156 39.0334 44.9156 42.8584 41.1094C43.9927 39.9844 45.4271 38.2969 45.8302 37.6031L45.999 37.3219L44.8927 36.5812C44.2834 36.1781 43.7396 35.8219 43.6834 35.7844C43.6177 35.7469 43.3271 36.0469 42.9615 36.5437C39.6521 40.9687 34.9927 43.8375 29.4896 44.8312C28.4771 45.0187 28.0084 45.0469 25.974 45.0469C23.4146 45.0375 22.7209 44.9625 20.6771 44.4281C13.749 42.6094 8.18962 37.3781 5.95837 30.5719C5.199 28.2562 4.90837 26.4562 4.90837 24C4.90837 23.1 4.95525 22.0031 5.0115 21.5625C5.424 18.4594 6.474 15.4594 7.974 13.0312C11.2365 7.77186 16.3834 4.26561 22.4396 3.1781C23.8177 2.93436 26.7521 2.83123 28.1771 2.9906C32.199 3.43123 36.024 5.00623 39.1459 7.50935C40.2615 8.40936 41.4521 9.53436 41.3771 9.61873C41.3396 9.64686 40.5896 9.62811 39.7084 9.56248C38.8271 9.49686 38.0865 9.46873 38.0584 9.49686C37.9927 9.56248 37.7865 12.2625 37.8427 12.3187C37.9177 12.3844 46.0084 12.9469 46.0646 12.8906C46.1115 12.8437 46.749 4.65936 46.7021 4.63123C46.6646 4.59373 43.8709 4.43436 43.8427 4.46248C43.8146 4.48123 43.749 5.1656 43.6834 5.98123C43.6177 6.78748 43.5615 7.47186 43.5615 7.4906C43.5521 7.50935 43.1021 7.09686 42.5584 6.57185C38.7802 2.96248 33.8584 0.67498 28.599 0.0937309C27.5865 -0.0187721 24.2021 -0.0093956 23.1615 0.11248Z" fill="white"/>
<path id="Vector_2" d="M29.8646 23.1094V28.9688H31.224H32.5834V26.5312C32.5834 24.5906 32.6115 24.0281 32.7146 23.8219C32.9209 23.4281 33.5584 22.9031 33.9709 22.7719C34.299 22.6781 34.3927 22.6875 34.7115 22.8375C35.3677 23.1656 35.3959 23.3062 35.3959 26.3156V28.9688H36.7646H38.1334L38.0959 25.7531C38.0584 22.7625 38.0396 22.5094 37.8521 21.9937C37.449 20.8781 36.699 20.4 35.3959 20.4094C34.3927 20.4187 33.7084 20.6625 33.0521 21.2437L32.5834 21.675V19.4625V17.25H31.224H29.8646V23.1094Z" fill="white"/>
<path id="Vector_3" d="M14.049 17.5312C12.8021 17.7094 11.5271 18.3 10.8146 19.0125L10.4677 19.3594L11.274 20.2312L12.0709 21.0937L12.4646 20.7844C13.3084 20.1094 14.2834 19.725 14.8927 19.8469C16.0834 20.0719 16.3646 21.3375 15.4271 22.2937C15.1834 22.5562 14.6021 22.9125 13.6271 23.4C11.1896 24.6375 10.6271 25.4625 10.4865 27.9937L10.4302 28.9688H14.7052H18.9896V27.7969V26.625H16.6459C14.0771 26.625 14.1427 26.6437 14.4427 26.0719C14.6584 25.65 15.2115 25.2281 16.4115 24.5625C17.7334 23.8406 18.324 23.3156 18.6802 22.5469C18.9052 22.05 18.9334 21.8812 18.9334 21.0469C18.9334 20.2969 18.8865 19.9969 18.7084 19.5469C18.1084 18 16.2802 17.2031 14.049 17.5312Z" fill="white"/>
<path id="Vector_4" d="M22.674 20.9062L20.0209 24.2625V25.4437V26.625H22.2709H24.5209V27.7969V28.9688H25.8334H27.1459V27.7969V26.625H27.849H28.5521V25.4531V24.2812H27.849H27.1459V20.9062V17.5312H26.2365L25.3177 17.5406L22.674 20.9062ZM24.774 24.2531C24.7459 24.2719 24.2865 24.2719 23.7427 24.2625L22.749 24.2344L23.7521 22.9312L24.7552 21.6375L24.7834 22.9219C24.7927 23.6344 24.7927 24.2344 24.774 24.2531Z" fill="white"/>
</g>
</g>
</svg>
