<svg width="48" height="48" viewBox="0 0 48 48" fill="none" xmlns="http://www.w3.org/2000/svg">
<g id="image 26 (traced)">
<g id="Black">
<path id="Vector" d="M5.43751 6.2156C4.57501 6.50622 3.97501 6.88122 3.35626 7.50935C2.76564 8.11872 2.24064 9.09372 2.07189 9.91872C2.00626 10.2562 1.96876 12.6 1.96876 17.0437C1.96876 24.2531 1.95939 24.1312 2.50314 25.275C2.86876 26.0437 3.78751 26.9906 4.58439 27.4125C5.26876 27.7687 6.13126 28.0312 6.62814 28.0312H6.93751V29.175C6.93751 30.5812 7.03126 30.9281 7.51876 31.4625C8.18438 32.1843 9.29063 32.3343 10.0969 31.8093C10.3219 31.6593 10.9313 30.9375 11.7563 29.8031L13.0594 28.0312H15.525H18V31.6687C18 35.625 18.0281 35.925 18.5438 36.8812C18.8625 37.4906 19.9781 38.625 20.5313 38.9062C20.7563 39.0187 21.1781 39.2062 21.4688 39.3187C21.975 39.5062 22.1438 39.5156 28.0313 39.5437L34.0781 39.5718L35.9531 41.4375C37.1531 42.6281 37.95 43.3593 38.175 43.4531C38.9813 43.7812 40.0313 43.5375 40.5656 42.9C40.9688 42.4031 41.0625 41.9906 41.0625 40.7156V39.6L41.8688 39.45C42.975 39.2437 43.7625 38.8312 44.5219 38.0718C45.2344 37.3687 45.675 36.5906 45.8906 35.7093C46.0969 34.8187 46.0969 22.1812 45.8906 21.2906C45.5719 19.9593 44.5031 18.6 43.3125 18.0187C42.1688 17.4562 41.9719 17.4375 35.7 17.4375H30V13.7718V10.1156L29.7656 9.4031C29.2125 7.77185 27.9375 6.56247 26.2969 6.13122C25.9219 6.0281 23.8875 5.99997 15.9375 5.99997L6.04689 6.00935L5.43751 6.2156ZM26.0344 8.26872C26.7563 8.5406 27.4594 9.24372 27.7313 9.9656C27.9281 10.4812 27.9375 10.65 27.9375 13.9687V17.4187L24.9656 17.4562C22.1813 17.4937 21.9469 17.5125 21.4313 17.7C21.1219 17.8125 20.6906 18.0093 20.4656 18.1406L20.0625 18.3843L19.8469 17.8875C18.1031 13.9593 16.9031 11.4468 16.6781 11.2218C16.4813 11.0437 16.3031 10.9687 16.05 10.9687C15.2813 10.9687 15.375 10.8093 12.5344 17.0718C9.67501 23.3718 9.74063 23.175 10.275 23.7375C10.6125 24.0843 11.2969 24.1125 11.6625 23.7843C11.8031 23.6625 12.225 22.8562 12.6844 21.8437L13.4719 20.1093L16.0219 20.0812C17.4188 20.0718 18.5625 20.0812 18.5625 20.1093C18.5625 20.1375 18.4969 20.2968 18.4031 20.4656C18.0656 21.1218 18 21.6562 18 23.8312V25.9687H15.0656C12.6094 25.9687 12.1031 25.9875 11.9344 26.1093C11.8219 26.1843 11.1281 27.075 10.3875 28.0781L9.04689 29.9156L9.00001 28.2C8.97188 27.2531 8.91564 26.4281 8.87813 26.3625C8.70938 26.1093 8.25939 25.9875 7.31251 25.95C6.08438 25.8937 5.54064 25.6781 4.89376 24.9937C4.03126 24.0843 4.07814 24.5062 4.07814 16.9687V10.3593L4.38751 9.73122C4.73439 9.01872 5.25939 8.52185 5.97189 8.24997C6.40313 8.08122 6.86251 8.07185 15.9563 8.06247H25.4906L26.0344 8.26872ZM16.8188 16.35C17.2125 17.2218 17.5219 17.9531 17.5031 17.9718C17.4844 17.9906 16.7906 17.9906 15.9563 17.9812L14.4563 17.9531L15.2156 16.2843C15.6281 15.3656 16.0031 14.6531 16.0406 14.6906C16.0781 14.7281 16.425 15.4781 16.8188 16.35ZM42.1594 19.8187C42.8344 20.1281 43.4156 20.7 43.7156 21.3562C43.9219 21.7968 43.9219 21.825 43.9219 28.5V35.2031L43.6594 35.7375C43.35 36.3656 42.8156 36.8718 42.1313 37.1906C41.7281 37.3687 41.4094 37.4343 40.575 37.4718C39.5813 37.5281 39.5063 37.5468 39.2625 37.7906L39 38.0437V39.7687V41.4843L37.0313 39.5156L35.0625 37.5468L28.7531 37.5C21.6281 37.4437 21.975 37.4812 21.0938 36.6843C20.8313 36.45 20.5031 36.0375 20.3625 35.775L20.1094 35.2968V28.5V21.7031L20.3625 21.2343C20.8219 20.3625 21.6375 19.7531 22.5938 19.5937C22.8281 19.5562 27.1875 19.5281 32.2969 19.5375L41.5781 19.5468L42.1594 19.8187Z" fill="white"/>
<path id="Vector_2" d="M31.4813 22.0781C31.0406 22.3312 30.9375 22.6594 30.9375 23.8594V24.9375H28.875C26.6625 24.9375 26.4281 24.975 26.1188 25.425C25.8281 25.8375 26.0156 26.6812 26.4281 26.9062C26.55 26.9625 28.0125 27 30.4969 27H34.3875L34.2563 27.5812C33.9938 28.7531 32.6625 30.9375 32.0906 31.1719C31.8656 31.2562 31.0125 30.3375 30.5625 29.5312C30.0469 28.6031 29.8219 28.4062 29.2781 28.4062C28.6219 28.4156 28.2188 28.8 28.2188 29.4187C28.2188 29.8219 28.7344 30.75 29.4469 31.6406L30.075 32.4187L29.8313 32.5219C29.3438 32.7187 28.4531 32.9062 28.0313 32.9062C26.9531 32.9156 26.4375 33.2625 26.4375 33.9656C26.4375 34.4344 26.6156 34.725 27.0281 34.9312C27.6938 35.2781 30.1688 34.8094 31.6688 34.0406C32.025 33.8625 32.0813 33.8531 32.2781 33.975C32.9813 34.4344 34.6688 34.9125 35.9625 35.0156C36.8625 35.1 37.2281 34.9594 37.4719 34.4625C37.875 33.6 37.2094 32.9156 35.9438 32.9062C35.5406 32.9062 34.1344 32.5781 34.0125 32.4562C33.975 32.4187 34.1625 32.1375 34.4156 31.8281C35.4 30.6562 36.1219 29.1187 36.375 27.675L36.4969 27H36.9844C37.3875 27 37.5 26.9625 37.725 26.7375C38.0438 26.3906 38.1281 25.9031 37.9313 25.5187C37.65 24.975 37.4531 24.9375 35.1094 24.9375H33V23.7375V22.5375L32.7281 22.275C32.4 21.9562 31.8469 21.8719 31.4813 22.0781Z" fill="white"/>
</g>
</g>
</svg>
