<svg width="49" height="48" viewBox="0 0 49 48" fill="none" xmlns="http://www.w3.org/2000/svg">
<g id="image 27 (traced)">
<g id="Black">
<path id="Vector" d="M22.8146 3.22498C21.9802 3.52497 21.7646 3.67497 20.349 5.06247C18.6802 6.7031 18.7177 6.68435 16.4584 6.75935C14.2177 6.82497 13.7677 6.94685 12.7271 7.78122C12.174 8.21247 11.6677 8.9156 11.3771 9.6656C11.2084 10.0968 11.1709 10.4437 11.1146 12C11.0396 14.3625 11.0584 14.325 9.35212 16.0687C8.33962 17.1 7.99275 17.5218 7.75837 18C7.074 19.425 7.15837 21.1031 8.00212 22.4531C8.13337 22.6593 8.799 23.4 9.48337 24.1031C10.1771 24.8062 10.7396 25.4531 10.7396 25.5469C10.7396 25.6312 9.1365 27.9187 7.16775 30.6187C5.20837 33.3187 3.53962 35.6812 3.46462 35.8594C3.0615 36.8344 3.60525 38.1187 4.58025 38.475C4.79587 38.5594 5.9865 38.7937 7.21462 38.9906C8.45212 39.1969 9.49275 39.4031 9.53025 39.4406C9.56775 39.4781 10.0552 40.3781 10.599 41.4375C11.8552 43.8469 11.9584 43.9969 12.549 44.2969C13.2615 44.6531 14.049 44.5875 14.6959 44.1375C14.8365 44.0437 16.3084 42.0844 17.9677 39.7969L20.9865 35.6343L21.3428 35.9437C22.4584 36.8906 24.0709 37.2656 25.4865 36.8906C26.1427 36.7219 26.6021 36.4969 27.174 36.0562L27.6146 35.7281L30.5115 39.7781C32.1052 42 33.5302 43.9406 33.6709 44.0719C34.1021 44.4656 34.374 44.5687 35.0302 44.5687C35.5271 44.5687 35.724 44.5219 36.0709 44.3156C36.5865 44.0156 36.5584 44.0625 37.8896 41.5594C38.4802 40.4344 38.9771 39.5062 38.9865 39.4969C39.0053 39.4875 39.9802 39.3281 41.1615 39.15C42.3521 38.9625 43.5334 38.7469 43.8053 38.6719C44.4521 38.475 44.9959 37.875 45.1552 37.1812C45.3521 36.2719 45.3146 36.2062 41.5834 30.975C39.7084 28.35 38.0959 26.0906 37.9928 25.9594C37.7396 25.6125 37.824 25.4906 39.2396 24.0469C39.8959 23.3718 40.5521 22.6406 40.6928 22.4156C41.5084 21.1031 41.5927 19.4156 40.9084 18C40.674 17.5218 40.3271 17.1 39.3146 16.0687C37.6084 14.3156 37.6271 14.3625 37.5521 12C37.5053 10.4437 37.4584 10.0968 37.2896 9.6656C36.7646 8.33435 35.7052 7.33122 34.4115 6.93747C34.2052 6.87185 33.2115 6.79685 32.2084 6.75935C29.9396 6.68435 29.9959 6.7031 28.2709 5.02497C27.5771 4.3406 26.8552 3.69373 26.6771 3.5906C25.6365 2.96247 23.9959 2.81247 22.8146 3.22498ZM25.3646 5.29685C25.5427 5.3906 26.2646 6.01872 26.9584 6.7031C28.9177 8.6156 29.1521 8.71872 31.7865 8.8031C33.4459 8.85935 33.7084 8.89685 34.0459 9.07497C34.6365 9.37497 34.9834 9.71247 35.2271 10.2C35.424 10.6031 35.4521 10.8093 35.499 12.4687C35.5834 15.1218 35.7052 15.4031 37.7302 17.4844C39.1271 18.9093 39.2396 19.1156 39.2396 20.0718C39.2302 20.8781 38.9865 21.2719 37.6084 22.6781C35.7052 24.6281 35.5834 24.8906 35.499 27.5625C35.424 29.6531 35.3584 29.8687 34.6084 30.5344C34.0459 31.0312 33.699 31.1062 31.7865 31.1531C30.4646 31.1906 30.0896 31.2375 29.5834 31.4062C28.6834 31.7062 28.4396 31.8843 27.0521 33.2437C25.5709 34.6875 25.1959 34.9125 24.3334 34.9125C23.4709 34.9125 23.0959 34.6875 21.6146 33.2437C20.2271 31.8843 19.9834 31.7062 19.0834 31.4062C18.5771 31.2375 18.1552 31.1906 16.6459 31.1343C14.6209 31.0687 14.5177 31.0312 13.8615 30.3562C13.2802 29.7469 13.1771 29.3812 13.1771 27.7031C13.1677 25.125 12.9802 24.6562 11.0959 22.725C9.67087 21.2625 9.4365 20.8781 9.42712 20.0718C9.42712 19.1156 9.53962 18.9093 10.9365 17.4844C12.9615 15.3937 13.0834 15.1406 13.1677 12.4687C13.2146 10.8093 13.2427 10.6031 13.4396 10.2C13.6834 9.71247 14.0302 9.37497 14.6209 9.07497C14.9584 8.89685 15.2209 8.85935 16.8802 8.8031C19.524 8.71872 19.7396 8.62497 21.7646 6.63747C22.4959 5.92497 23.1052 5.34372 23.124 5.34372C23.1427 5.34372 23.3302 5.2781 23.5365 5.2031C24.0052 5.02497 24.924 5.07185 25.3646 5.29685ZM11.3021 30.15C11.6209 31.1625 12.5115 32.2031 13.4677 32.7187C14.2646 33.1406 15.0521 33.2812 16.749 33.2812C18.1177 33.2812 18.2302 33.3 18.6802 33.5156C19.6553 34.0031 19.8521 33.5812 16.5052 38.1937C14.874 40.4437 13.5052 42.2812 13.4771 42.2812C13.4396 42.2812 12.9709 41.4094 12.4271 40.35C11.8834 39.2812 11.3302 38.2594 11.1896 38.0625C10.8052 37.5094 10.3552 37.3594 7.974 36.9844C6.79275 36.7969 5.75212 36.6187 5.66775 36.5812C5.5365 36.525 6.05212 35.7656 8.29275 32.6906L11.0677 28.8656L11.124 29.325C11.1615 29.5781 11.2365 29.9531 11.3021 30.15ZM40.3178 32.8594C41.7521 34.8656 42.9521 36.5625 42.999 36.6187C43.0553 36.6844 42.3427 36.825 40.7584 37.0687C38.3021 37.4531 37.9365 37.5469 37.524 37.95C37.3834 38.0812 36.774 39.1406 36.1646 40.2844C35.5646 41.4281 35.0396 42.3656 35.0021 42.3469C34.9646 42.3375 33.6334 40.4906 32.0302 38.25L29.124 34.1812L29.3209 33.9656C29.4334 33.8437 29.7334 33.6469 29.9959 33.5156C30.4365 33.3 30.5584 33.2812 31.9177 33.2812C32.8271 33.2812 33.624 33.225 34.0177 33.1406C35.7334 32.775 37.1584 31.3406 37.4865 29.6437C37.5427 29.325 37.6178 29.1 37.6552 29.1375C37.6834 29.175 38.8834 30.8437 40.3178 32.8594Z" fill="white"/>
<path id="Vector_2" d="M22.1302 9.46875C18.3146 10.2937 15.2865 12.9937 14.124 16.6406C13.7115 17.9156 13.6084 18.5812 13.6084 20.0156C13.6084 22.95 14.5834 25.3687 16.6271 27.4875C18.6521 29.5875 21.399 30.75 24.3334 30.75C29.4521 30.75 33.8209 27.1781 34.8896 22.125C35.0865 21.1687 35.1146 19.0031 34.9365 18.0937C34.2428 14.5781 32.0771 11.7656 28.8802 10.2562C27.4365 9.57187 26.4521 9.35625 24.5677 9.31875C23.2552 9.29062 22.824 9.31875 22.1302 9.46875ZM26.3959 11.5875C29.499 12.4031 31.8709 14.7562 32.7334 17.8687C32.9677 18.7312 33.0146 20.7094 32.8271 21.6656C32.2084 24.7031 29.9209 27.2719 26.9865 28.2188C25.2146 28.7906 23.5271 28.8 21.7834 28.2562C18.7646 27.3187 16.4771 24.7687 15.849 21.6656C15.6146 20.5125 15.6896 18.7125 16.0271 17.5781C16.674 15.4219 18.2021 13.5187 20.1428 12.4312C20.7896 12.0656 22.1678 11.5781 22.9365 11.4469C23.6678 11.3156 25.674 11.4 26.3959 11.5875Z" fill="white"/>
<path id="Vector_3" d="M27.7271 16.1906C27.6146 16.2844 26.6396 17.475 25.5521 18.8437C24.4552 20.2125 23.5271 21.3375 23.4802 21.3562C23.4334 21.375 22.9084 20.9812 22.3177 20.4937C21.2584 19.6219 21.2209 19.5937 20.7615 19.5937C20.3677 19.5937 20.2459 19.6406 20.0115 19.8656C19.7959 20.0812 19.7396 20.2219 19.7396 20.5312C19.7396 20.7469 19.7865 21 19.8334 21.0937C19.9365 21.2812 22.8427 23.7094 23.1802 23.8875C23.4709 24.0469 23.874 24.0281 24.1646 23.8312C24.4646 23.6437 29.0677 17.9156 29.2834 17.475C29.6021 16.7906 29.1052 16.0312 28.3177 16.0312C28.074 16.0312 27.8396 16.0969 27.7271 16.1906Z" fill="white"/>
</g>
</g>
</svg>
