<svg width="48" height="48" viewBox="0 0 48 48" fill="none" xmlns="http://www.w3.org/2000/svg">
<g id="image 8 (traced)" clip-path="url(#clip0_437_97)">
<g id="Black">
<path id="Vector" d="M23.2125 0.178125C22.6594 0.54375 22.5938 0.759375 22.5938 2.22187C22.5938 3.51562 22.6031 3.55312 22.8375 3.84375C23.4656 4.58437 24.45 4.6125 25.125 3.89062C25.35 3.65625 25.3594 3.58125 25.3875 2.31562C25.425 0.815625 25.3406 0.525 24.7969 0.1875C24.3938 -0.0656252 23.5875 -0.0656252 23.2125 0.178125Z" fill="white"/>
<path id="Vector_2" d="M8.74685 5.89687C8.23123 6.21562 7.99685 6.89062 8.1656 7.52812C8.2406 7.81874 8.4656 8.11874 9.01873 8.69062C9.43123 9.11249 9.90935 9.52499 10.0781 9.59999C10.8 9.94687 11.6625 9.65624 11.9906 8.97187C12.3844 8.15624 12.225 7.75312 11.0719 6.60937L10.2281 5.77499L9.63748 5.73749C9.16873 5.71874 8.98123 5.74687 8.74685 5.89687Z" fill="white"/>
<path id="Vector_3" d="M37.8281 5.81249C37.5375 5.93437 36.0188 7.51875 35.9156 7.80937C35.7656 8.20312 35.7938 8.52187 36.0094 8.97187C36.3375 9.65624 37.2 9.94687 37.9219 9.59999C38.0906 9.52499 38.5688 9.11249 38.9813 8.69062C39.5344 8.11874 39.7594 7.81875 39.8344 7.52812C40.0031 6.89062 39.7594 6.21562 39.2531 5.90624C38.9344 5.70937 38.1844 5.6625 37.8281 5.81249Z" fill="white"/>
<path id="Vector_4" d="M22.7344 7.0875C21.3281 7.28437 20.9344 7.35 20.1562 7.55625C15.5812 8.775 11.7375 12.3562 10.1812 16.8562C9.69374 18.2719 9.46874 19.4437 9.40312 21C9.22499 25.3219 10.7625 29.2125 13.8281 32.2031C14.2594 32.625 14.7562 33.0656 14.9437 33.1875L15.2812 33.4219V36.1969C15.2812 39.3094 15.3281 39.6281 15.8812 40.2844C16.0781 40.5094 16.4156 40.7531 16.725 40.8844L17.2312 41.1094L17.2687 43.1719L17.2969 45.2344L17.5969 45.8625C17.9625 46.6312 18.5437 47.2312 19.3312 47.6437L19.9219 47.9531H24H28.0781L28.6781 47.6437C29.4375 47.2406 30.0469 46.6125 30.4125 45.8438L30.7031 45.2344L30.7312 43.1719L30.7687 41.1L31.2094 40.9406C31.7437 40.7531 32.3062 40.2375 32.5406 39.7125C32.7 39.3656 32.7187 39.0469 32.7187 36.375V33.4219L33.0375 33.2062C33.2156 33.0844 33.7125 32.6437 34.1531 32.2219C37.2281 29.2406 38.775 25.3312 38.5969 21C38.4656 18.0187 37.4906 15.2812 35.7187 12.9187C33.4406 9.89062 30.2625 7.94062 26.4844 7.25625C25.7437 7.11562 23.2781 7.0125 22.7344 7.0875ZM26.4375 10.2094C30.825 11.2031 34.2187 14.475 35.3625 18.825C35.6344 19.8562 35.6531 20.025 35.6625 21.6094C35.6625 22.875 35.6156 23.475 35.5031 24C34.8281 26.9344 33.3094 29.2969 30.9 31.1437C29.7844 31.9969 29.8594 31.6969 29.8312 35.2125L29.8031 38.25H27.6H25.4062V31.3312V24.4219L25.9031 24.2437C26.9156 23.8875 28.0594 22.95 28.5281 22.0969C28.7625 21.6656 28.7344 21.0094 28.4719 20.6156C27.9094 19.7719 26.6812 19.7625 26.025 20.6062C25.4344 21.3656 24.8719 21.6562 24 21.6562C23.1281 21.6562 22.5656 21.3656 21.975 20.6062C21.0937 19.4719 19.3125 19.9781 19.3125 21.3656C19.3125 21.8531 19.4812 22.2094 19.9875 22.8187C20.3906 23.2969 21.4031 23.9906 22.0594 24.2344L22.5 24.4031V31.3219V38.25H20.3437H18.1969L18.1687 35.2125C18.1406 31.6969 18.2156 31.9969 17.1 31.1437C14.6906 29.2969 13.1719 26.9344 12.4969 24C12.3844 23.475 12.3375 22.875 12.3375 21.6094C12.3469 20.025 12.3656 19.8562 12.6375 18.825C13.1812 16.7531 14.2406 14.9062 15.75 13.4062C17.6625 11.4937 20.0344 10.35 22.7812 9.99375C23.4844 9.90937 25.6594 10.0312 26.4375 10.2094ZM27.8437 42.7969V44.5312L27.5719 44.8312L27.3 45.1406H24H20.7L20.4281 44.8312L20.1562 44.5312V42.7969V41.0625H24H27.8437V42.7969Z" fill="white"/>
<path id="Vector_5" d="M3.4125 20.2875C2.93437 20.4937 2.67188 20.9625 2.67188 21.5812C2.67188 22.1531 2.83125 22.4625 3.31875 22.8187C3.55312 22.9969 3.7125 23.0156 4.875 23.0156C6.0375 23.0156 6.19687 22.9969 6.43125 22.8187C7.10625 22.3219 7.28437 21.6187 6.91875 20.9156C6.58125 20.2687 6.28125 20.1562 4.875 20.1562C4.10625 20.1656 3.6 20.2031 3.4125 20.2875Z" fill="white"/>
<path id="Vector_6" d="M41.625 20.325C40.9406 20.6812 40.6781 21.7875 41.1281 22.3875C41.5594 22.9688 41.7187 23.0156 43.125 23.0156C44.5406 23.0156 44.6906 22.9688 45.1312 22.3687C45.4219 21.9844 45.4031 21.15 45.1031 20.7281C44.7656 20.25 44.4187 20.1562 43.1062 20.1562C42.1687 20.1562 41.8875 20.1844 41.625 20.325Z" fill="white"/>
</g>
</g>
<defs>
<clipPath id="clip0_437_97">
<rect width="48" height="48" fill="white"/>
</clipPath>
</defs>
</svg>
