<svg width="51" height="50" viewBox="0 0 51 50" fill="none" xmlns="http://www.w3.org/2000/svg">
<g id="asking_faq_questions_and_answers_icon_220638 1" clip-path="url(#clip0_437_71)">
<g id="Layer 2">
<g id="Layer 1">
<path id="questions and answers" d="M20.6197 16.04C19.9476 16.3797 19.3836 16.9004 18.9915 17.5434C18.5993 18.1863 18.3945 18.9261 18.4002 19.6792C18.39 19.8651 18.309 20.0402 18.1737 20.1682C18.0384 20.2963 17.8593 20.3676 17.673 20.3676C17.4867 20.3676 17.3076 20.2963 17.1723 20.1682C17.0371 20.0402 16.956 19.8651 16.9458 19.6792C16.9388 18.696 17.1977 17.7292 17.6952 16.8811C18.1927 16.0331 18.9103 15.3353 19.7719 14.8618C20.9263 14.0205 21.8371 13.3574 21.8371 11.6335C21.8371 10.5288 21.3983 9.46939 20.6172 8.68826C19.836 7.90713 18.7766 7.4683 17.6719 7.4683C16.5672 7.4683 15.5078 7.90713 14.7267 8.68826C13.9455 9.46939 13.5067 10.5288 13.5067 11.6335C13.4965 11.8195 13.4155 11.9945 13.2802 12.1226C13.145 12.2506 12.9658 12.322 12.7795 12.322C12.5933 12.322 12.4141 12.2506 12.2788 12.1226C12.1436 11.9945 12.0625 11.8195 12.0524 11.6335C12.0541 10.1436 12.6467 8.71528 13.7002 7.66179C14.7537 6.60829 16.182 6.01567 17.6719 6.01395C23.2654 6.0183 25.4024 13.4705 20.6197 16.04ZM17.1632 22.89C16.4871 23.5422 17.5306 24.5922 18.1893 23.9161C18.848 23.24 17.8132 22.2313 17.1632 22.89ZM49.7067 24.8661V40.6204C49.7056 41.6106 49.3117 42.5599 48.6115 43.2601C47.9114 43.9602 46.9621 44.3541 45.9719 44.3552H31.0154C29.4108 44.356 27.8337 44.7716 26.4371 45.5617L20.4545 48.9443C20.3437 49.0063 20.2187 49.0383 20.0917 49.0372C19.9648 49.0362 19.8403 49.002 19.7306 48.9381C19.6208 48.8743 19.5297 48.7829 19.466 48.6731C19.4023 48.5632 19.3684 48.4387 19.3676 48.3117V29.1009H5.44366C4.45556 29.0924 3.51032 28.6962 2.8114 27.9977C2.11248 27.2992 1.71578 26.3542 1.7067 25.3661V4.77699C1.70577 4.27011 1.80912 3.76846 2.01032 3.30322C2.21152 2.83799 2.50628 2.41911 2.87627 2.07265C3.56803 1.41202 4.48712 1.04235 5.44366 1.04004L29.9024 1.04004C30.8904 1.04912 31.8355 1.44582 32.534 2.14473C33.2325 2.84365 33.6286 3.7889 33.6371 4.77699V21.1313H45.9719C46.9621 21.1325 47.9114 21.5263 48.6115 22.2265C49.3117 22.9266 49.7056 23.8759 49.7067 24.8661ZM32.1828 33.0139V4.77699C32.176 4.17429 31.9336 3.59818 31.5074 3.17198C31.0812 2.74577 30.5051 2.50334 29.9024 2.49656H5.44366C4.84075 2.50333 4.26441 2.74569 3.83786 3.17184C3.41131 3.59798 3.16839 4.17409 3.16105 4.77699V25.3661C3.16839 25.969 3.41131 26.5451 3.83786 26.9713C4.26441 27.3974 4.84075 27.6398 5.44366 27.6465H19.8654C23.6284 27.3444 28.9915 31.4052 32.1828 33.0139ZM48.2524 24.8661C48.2512 24.2617 48.0106 23.6823 47.5832 23.2549C47.1557 22.8275 46.5764 22.5868 45.9719 22.5857H33.6371V34.2596C33.6363 34.3865 33.6024 34.5111 33.5387 34.6209C33.475 34.7308 33.3839 34.8221 33.2741 34.886C33.1644 34.9498 33.0399 34.984 32.913 34.9851C32.786 34.9862 32.661 34.9542 32.5502 34.8922C30.1154 33.7161 23.5763 29.1726 20.8219 29.1639V47.0661C23.6741 45.5444 27.6067 42.6596 31.0132 42.903H45.9697C46.5746 42.9019 47.1543 42.661 47.5818 42.2331C48.0092 41.8052 48.2496 41.2253 48.2502 40.6204L48.2524 24.8661ZM40.8154 26.1987C40.6222 26.1987 40.437 26.2754 40.3004 26.412C40.1639 26.5486 40.0871 26.7338 40.0871 26.927V34.6835C40.0973 34.8695 40.1784 35.0445 40.3136 35.1726C40.4489 35.3006 40.6281 35.372 40.8143 35.372C41.0006 35.372 41.1798 35.3006 41.315 35.1726C41.4503 35.0445 41.5313 34.8695 41.5415 34.6835V26.927C41.5418 26.8314 41.5232 26.7368 41.4868 26.6484C41.4505 26.5601 41.397 26.4798 41.3296 26.4121C41.2621 26.3445 41.182 26.2908 41.0938 26.2542C41.0055 26.2176 40.9109 26.1987 40.8154 26.1987ZM40.298 38.0444C39.6219 38.6965 40.6719 39.7487 41.3263 39.0726C41.9806 38.3965 40.9589 37.3857 40.298 38.0444Z" fill="white" stroke="white"/>
</g>
</g>
</g>
<defs>
<clipPath id="clip0_437_71">
<rect width="50" height="50" fill="white" transform="translate(0.666656)"/>
</clipPath>
</defs>
</svg>
