<svg width="48" height="48" viewBox="0 0 48 48" fill="none" xmlns="http://www.w3.org/2000/svg">
<g id="image 24 (traced)" clip-path="url(#clip0_492_293)">
<g id="Black">
<path id="Vector" d="M18.16 0.240009C14.912 1.12001 12.368 3.00801 10.672 5.79201C10.336 6.35201 9.95199 7.13601 9.80799 7.53601C9.55199 8.24001 9.48799 8.28801 8.73599 8.46401C7.50399 8.75201 5.74399 9.66401 4.43199 10.704C2.49599 12.24 1.00799 14.528 0.319986 16.992C-0.0800144 18.464 -0.128014 21.824 0.239986 23.28C0.559986 24.528 1.55199 26.592 2.30399 27.584L2.91199 28.368L2.65599 29.616C1.34399 36.16 5.23199 42.304 11.76 44C12.816 44.288 13.408 44.336 15.136 44.288L17.216 44.24L18.256 45.168C19.44 46.256 21.6 47.376 23.2 47.744C24.784 48.128 27.952 48.08 29.408 47.68C31.792 47.024 34.112 45.536 35.632 43.696C36.432 42.72 37.76 40.384 37.76 39.936C37.76 39.824 38.128 39.648 38.592 39.536C39.824 39.216 42.032 38.048 43.072 37.168C44.976 35.552 46.576 32.992 47.104 30.72C47.472 29.2 47.44 26.128 47.056 24.608C46.688 23.168 45.872 21.488 45.008 20.4L44.384 19.6L44.608 18.88C44.72 18.48 44.864 17.44 44.912 16.56C45.248 10.64 41.456 5.52001 35.6 4.00001C34.544 3.71201 33.952 3.66401 32.224 3.71201L30.144 3.76001L29.168 2.88001C27.984 1.80801 26.08 0.768009 24.48 0.33601C23.04 -0.0639915 19.488 -0.111992 18.16 0.240009ZM24.16 3.80801C24.656 4.00001 25.424 4.38401 25.872 4.67201L26.688 5.20001L21.776 8.03201C19.072 9.60001 16.72 11.024 16.544 11.216C16.256 11.536 16.24 11.92 16.16 18.496L16.08 25.44L14.208 24.368L12.32 23.28V17.2C12.32 12.4 12.368 10.912 12.56 10.112C13.296 6.97601 15.696 4.49601 18.88 3.58401C20.032 3.24801 23.072 3.37601 24.16 3.80801ZM34.688 7.28001C38.56 8.19201 41.424 11.712 41.504 15.664C41.504 16.352 41.472 16.976 41.424 17.024C41.376 17.088 39.136 15.856 36.464 14.304C33.792 12.768 31.376 11.456 31.088 11.408C30.64 11.328 29.872 11.728 25.088 14.48C22.064 16.224 19.36 17.776 19.088 17.952L18.56 18.272V16.048V13.824L23.888 10.752C28.176 8.28801 29.456 7.61601 30.416 7.37601C31.84 6.99201 33.328 6.96001 34.688 7.28001ZM8.95999 17.904C8.95999 23.808 8.95999 23.824 9.32799 24.224C9.51999 24.448 12.208 26.08 15.28 27.84C18.368 29.616 20.944 31.12 21.008 31.184C21.136 31.312 17.472 33.488 17.28 33.408C17.216 33.376 14.896 32.064 12.144 30.48C7.72799 27.952 6.99199 27.472 5.99999 26.48C4.17599 24.672 3.35999 22.736 3.35999 20.24C3.35999 17.888 4.12799 15.92 5.74399 14.208C6.54399 13.344 8.43199 12 8.83199 12C8.91199 12 8.95999 14.656 8.95999 17.904ZM35.216 17.52C39.632 20.048 40.368 20.528 41.36 21.52C43.184 23.328 44 25.264 44 27.728C44 30.24 43.168 32.208 41.36 34C40.736 34.608 39.84 35.312 39.36 35.568L38.48 36.016L38.4 29.984L38.32 23.968L37.92 23.632C37.696 23.44 34.944 21.808 31.824 20L26.128 16.72L27.984 15.648C29.008 15.056 29.92 14.592 30.016 14.608C30.112 14.624 32.464 15.936 35.216 17.52ZM26.272 19.664L28.72 21.072V24V26.912L26.256 28.336C24.896 29.12 23.728 29.76 23.664 29.76C23.6 29.76 22.432 29.12 21.088 28.336L18.64 26.912V23.984V21.056L21.04 19.664C22.368 18.896 23.52 18.256 23.632 18.256C23.728 18.24 24.928 18.88 26.272 19.664ZM34.032 24.144L35.04 24.72V30.736C35.04 36.208 35.008 36.864 34.72 37.984C34.544 38.672 34.208 39.6 33.968 40.048C33.28 41.328 31.68 42.912 30.432 43.568C28.704 44.48 27.728 44.688 25.776 44.608C23.904 44.512 22.896 44.208 21.488 43.328L20.656 42.8L25.616 39.936C28.336 38.352 30.72 36.896 30.88 36.672C31.184 36.288 31.2 35.984 31.2 29.408V22.528L32.128 23.04C32.624 23.328 33.488 23.824 34.032 24.144ZM28.8 31.952V34.16L23.616 37.152C20.768 38.8 18 40.288 17.472 40.464C12.432 42.176 7.08799 39.056 5.98399 33.76C5.75999 32.688 5.74399 31.168 5.95199 30.96C5.99999 30.912 8.04799 32.032 10.496 33.456C16.048 36.656 16.112 36.688 16.64 36.592C16.864 36.544 19.68 34.976 22.896 33.136C26.096 31.28 28.736 29.76 28.768 29.76C28.784 29.76 28.8 30.752 28.8 31.952Z" fill="white"/>
</g>
</g>
<defs>
<clipPath id="clip0_492_293">
<rect width="47.36" height="48" fill="white"/>
</clipPath>
</defs>
</svg>
