<svg width="48" height="48" viewBox="0 0 48 48" fill="none" xmlns="http://www.w3.org/2000/svg">
<g id="image 29 (traced)">
<g id="Black">
<path id="Vector" d="M22.3781 1.05937C20.7844 2.67188 18.8531 3.84375 16.125 4.875C12.6188 6.20625 7.65938 7.125 4.05938 7.125C3.19688 7.125 2.85938 7.2375 2.54063 7.65C2.34375 7.90312 2.34375 7.9125 2.34375 16.8656C2.34375 26.2031 2.3625 26.5969 2.76563 28.5C3.13125 30.2719 3.8625 32.25 4.74375 33.9281C7.65 39.4312 13.2844 44.1187 20.2969 46.8656C22.1344 47.5875 23.475 48 23.9719 48C24.1969 48 24.9281 47.8125 25.6125 47.5875C29.9344 46.1625 34.0125 43.9219 37.1719 41.25C38.1938 40.3875 39.9844 38.5594 40.7438 37.6031C42.8156 35.0156 44.3344 31.9688 45.0375 28.9594C45.6 26.5875 45.6094 26.4469 45.6094 16.8281C45.6094 8.48438 45.6 7.99687 45.4406 7.75312C45.1313 7.28437 44.7563 7.125 43.9125 7.125C42.2906 7.125 39.4781 6.83437 37.5 6.45937C34.3688 5.85938 31.6688 4.96875 29.25 3.74062C27.6844 2.94375 26.4656 2.04375 25.3594 0.890625L24.5156 0H23.9625H23.4188L22.3781 1.05937ZM26.3156 4.95C30.0656 7.40625 36.2906 9.225 41.9531 9.525L43.1344 9.59062L43.0969 17.8031C43.0688 26.8125 43.0781 26.5312 42.4688 28.8281C41.6156 32.0531 39.9656 34.8937 37.4062 37.5375C34.1813 40.875 30.0656 43.425 25.2281 45.075L23.9719 45.4969L23.1656 45.2344C16.7625 43.1719 11.1656 39.1969 7.99688 34.4531C6.53438 32.2594 5.56875 29.8781 5.04375 27.1406C4.85625 26.1469 4.84688 25.7812 4.80938 17.8312L4.77188 9.5625H5.31563C6.70312 9.5625 9.65625 9.17812 11.8125 8.71875C16.5563 7.71562 20.7094 5.89687 23.2594 3.7125L23.9531 3.12187L24.7031 3.75C25.1156 4.09687 25.8375 4.64062 26.3156 4.95Z" fill="white"/>
<path id="Vector_2" d="M22.7438 14.4937C21.0938 14.8875 19.7063 16.275 19.2656 17.9531C19.1719 18.3469 19.125 18.9656 19.125 20.0344V21.5625H18.3563C17.7375 21.5625 17.5125 21.6 17.2688 21.75C16.6875 22.1062 16.6875 22.0687 16.6875 27.6281C16.6875 32.4937 16.6969 32.6812 16.875 32.9812C16.9781 33.15 17.1938 33.3656 17.3625 33.4688C17.6625 33.6469 17.85 33.6562 23.9531 33.6562C29.8594 33.6562 30.2531 33.6469 30.5531 33.4875C30.7313 33.3937 30.9563 33.1687 31.05 32.9906C31.2094 32.7 31.2188 32.3344 31.2188 27.6281C31.2188 22.0687 31.2188 22.1062 30.6375 21.75C30.3938 21.6 30.1688 21.5625 29.5594 21.5625H28.7813V20.0344C28.7813 18.9656 28.7344 18.3469 28.6406 17.9531C27.9656 15.3937 25.3594 13.8562 22.7438 14.4937ZM25.1813 17.2031C25.6969 17.5219 26.1844 18.2437 26.2875 18.8156C26.3156 19.0125 26.3438 19.7062 26.3438 20.3625V21.5625H23.9438H21.5438L21.5719 20.1281C21.6094 18.7969 21.6281 18.6656 21.8719 18.1687C22.3125 17.2687 23.025 16.8562 24.0563 16.8937C24.6094 16.9219 24.7969 16.9688 25.1813 17.2031ZM28.6875 27.5625V31.125H23.9531H19.2188V27.5625V24H23.9531H28.6875V27.5625Z" fill="white"/>
</g>
</g>
</svg>
