<svg width="49" height="48" viewBox="0 0 49 48" fill="none" xmlns="http://www.w3.org/2000/svg">
<g id="image 10 (traced)" clip-path="url(#clip0_437_135)">
<g id="Black">
<path id="Vector" d="M23.9584 5.475C23.3115 5.71875 0.661498 16.425 0.502123 16.575C0.267748 16.7719 0.277123 17.4469 0.511498 17.6625C0.605248 17.7469 2.45212 18.6469 4.60837 19.6687L8.5365 21.525L8.58337 25.875L8.63025 30.2344L8.92087 30.8437C10.4584 34.0594 15.9146 36.9469 21.7084 37.5938C22.974 37.7437 25.6928 37.7437 26.9584 37.5938C29.499 37.3125 32.3302 36.5156 34.2615 35.5406L34.8334 35.25V36.0375C34.8334 36.7594 34.8146 36.8344 34.6365 36.8906C34.3084 36.9937 33.6896 37.6125 33.5115 38.0156C33.174 38.7469 33.324 39.9469 33.8209 40.4719L34.0177 40.6781L33.8584 42.4875C33.6521 44.925 33.6615 45.3281 33.8959 45.5625C34.0646 45.7312 34.2052 45.75 35.5834 45.75C36.9615 45.75 37.1021 45.7312 37.2709 45.5625C37.5052 45.3281 37.5146 44.925 37.3084 42.4875L37.149 40.6781L37.3459 40.4719C37.8428 39.9469 37.9928 38.7469 37.6553 38.0156C37.4771 37.6125 36.8584 36.9937 36.5303 36.8906C36.3428 36.8344 36.3334 36.7687 36.3334 35.625V34.4156L37.0177 33.9C38.3865 32.8687 39.249 31.9031 39.7459 30.8437L40.0365 30.2344L40.0834 25.875L40.1302 21.525L44.0584 19.6687C46.2146 18.6469 48.0615 17.7469 48.1552 17.6625C48.3896 17.4469 48.399 16.7719 48.1646 16.5656C47.9865 16.4062 24.8302 5.48438 24.4928 5.40937C24.3803 5.38125 24.1365 5.40937 23.9584 5.475ZM35.0865 12.1219L45.6896 17.1187L40.7771 19.4344L35.8553 21.75L30.1271 18.8812C24.1178 15.8812 24.174 15.9 23.7521 16.2844C23.5365 16.4719 23.4615 16.8844 23.574 17.1844C23.6584 17.4 24.4646 17.8312 28.8521 20.025L34.0365 22.6219L33.474 22.875C33.1646 23.0156 30.9802 24.0469 28.6271 25.1531L24.3334 27.1781L13.6646 22.1531L2.9865 17.1187L13.5896 12.1219C19.4209 9.375 24.2584 7.125 24.3334 7.125C24.4084 7.13437 29.2459 9.375 35.0865 12.1219ZM17.2084 25.6031C22.074 27.9 24.099 28.8094 24.3334 28.8094C24.5678 28.8094 26.0584 28.1531 29.5834 26.4937C32.2927 25.2094 34.5802 24.1312 34.674 24.0844C34.824 24 34.8334 24.2344 34.8146 28.7062L34.7865 33.4219L33.9427 33.8625C30.3803 35.7281 26.0396 36.4875 21.7552 35.9906C17.349 35.475 12.8865 33.4031 10.9459 30.975C10.1115 29.925 10.1302 30.075 10.1021 25.9312C10.074 22.4531 10.0834 22.2937 10.2427 22.3406C10.3365 22.3687 13.4677 23.8312 17.2084 25.6031ZM38.5646 25.9406L38.5365 29.5781L38.2928 30.0937C38.0021 30.6844 37.4303 31.3969 36.7834 31.9687L36.3334 32.3625V27.825V23.2969L37.3459 22.8094C37.899 22.5469 38.4053 22.3219 38.4709 22.3219C38.574 22.3125 38.5928 23.0062 38.5646 25.9406ZM36.0521 38.5312C36.1553 38.6344 36.2396 38.8406 36.2396 39C36.2396 39.1594 36.1553 39.3656 36.0521 39.4687C35.649 39.8719 34.9271 39.5719 34.9271 39C34.9271 38.6437 35.2271 38.3437 35.5834 38.3437C35.7428 38.3437 35.949 38.4281 36.0521 38.5312ZM35.7146 42.675C35.7521 43.2094 35.799 43.7812 35.8271 43.9406C35.8834 44.2406 35.874 44.25 35.5834 44.25C35.2928 44.25 35.2834 44.2406 35.3396 43.9406C35.3678 43.7812 35.4146 43.2094 35.4521 42.675C35.4896 42.15 35.5459 41.7188 35.5834 41.7188C35.6209 41.7188 35.6771 42.15 35.7146 42.675Z" fill="white"/>
</g>
</g>
<defs>
<clipPath id="clip0_437_135">
<rect width="48" height="48" fill="white" transform="translate(0.333374)"/>
</clipPath>
</defs>
</svg>
