<svg width="48" height="48" viewBox="0 0 48 48" fill="none" xmlns="http://www.w3.org/2000/svg">
<g id="image 28 (traced)" clip-path="url(#clip0_492_342)">
<g id="Black">
<path id="Vector" d="M29.2594 0.140717C27.6562 0.496967 26.325 1.24697 25.0312 2.55009C24.4687 3.11259 24.7781 4.03134 25.5375 4.03134C25.8094 4.03134 26.0062 3.91884 26.6437 3.37509C27.5906 2.58759 28.4437 2.11884 29.4 1.87509C30.0937 1.69697 30.4594 1.68759 37.3031 1.68759C44.325 1.68759 44.4937 1.69697 44.9062 1.88447C45.4219 2.11884 45.7969 2.46572 46.0594 2.95322C46.2656 3.32822 46.2656 3.35634 46.2937 10.3595C46.3125 15.0188 46.2844 17.6063 46.2187 18.0376C46.1062 18.7782 45.8156 19.5376 45.3656 20.3251C44.9062 21.1032 20.2875 45.7782 19.6969 46.0501C19.1437 46.3032 18.3469 46.2938 17.7562 46.0407C17.3812 45.872 15.9656 44.5126 9.69373 38.222C4.57498 33.1032 2.03436 30.4876 1.91248 30.2345C1.67811 29.7376 1.66873 28.6782 1.91248 28.2188C2.12811 27.797 23.7187 6.18759 23.9156 6.18759C24.1687 6.18759 27.225 7.07822 28.9125 7.64072C30.2625 8.09072 32.3344 8.85947 32.4187 8.95322C32.4375 8.96259 32.3812 9.14072 32.2969 9.33759C32.0531 9.91884 31.9594 10.4907 31.9594 11.297C31.9781 14.9438 36.0375 17.2313 39.1875 15.3751C40.8937 14.372 41.85 12.3938 41.5594 10.5001C41.2031 8.22197 39.1312 6.37509 36.9187 6.37509C36.2719 6.37509 35.9531 6.64697 35.9531 7.22822C35.9531 7.75322 36.1969 7.95947 36.975 8.07197C37.8469 8.19384 38.4281 8.46572 38.9344 8.98134C40.2375 10.322 40.2375 12.0845 38.925 13.4251C37.3781 15.0188 34.6312 14.4001 33.8344 12.2907C33.6 11.6626 33.6187 10.5751 33.8719 10.0032L34.0219 9.64697L34.6125 9.94697C34.9406 10.1063 35.5031 10.4345 35.8594 10.6688L36.5156 11.0907L36 11.2126C35.4 11.3438 35.1562 11.597 35.1562 12.0845C35.1656 12.9188 35.9625 13.1251 37.2844 12.6376C37.8094 12.4407 38.3344 11.9345 38.3625 11.597C38.4187 10.6782 37.9875 10.0595 36.6094 9.12197C33.5156 7.02197 24.3937 4.13447 17.8594 3.18759C13.5656 2.56884 11.2406 2.76572 10.6406 3.79697C10.0969 4.71572 10.4906 5.50322 12.0469 6.56259C13.0031 7.20947 15.5625 8.44697 16.5375 8.72822C17.1469 8.90634 17.7656 8.25009 17.5406 7.67822C17.4094 7.33134 17.1844 7.17197 16.1719 6.75009C14.5219 6.04697 13.2 5.34384 12.5437 4.81884L12.2906 4.61259L13.0594 4.54697C14.4094 4.43447 17.025 4.71572 20.1 5.30634L21.8625 5.65322L11.3156 16.2095C4.64998 22.8845 0.684356 26.9251 0.534356 27.1876C0.0187311 28.097 -0.131269 29.2595 0.131231 30.2345C0.449981 31.4251 0.299981 31.2657 8.51248 39.4782C15.6094 46.5751 16.3219 47.2501 16.875 47.522C17.6906 47.9157 18.5719 48.047 19.3875 47.9063C20.7656 47.672 19.8094 48.5532 33.4031 34.9782C40.2562 28.1438 46.0687 22.2751 46.3219 21.9376C46.575 21.6001 46.9781 20.9438 47.2031 20.4845C47.9906 18.8813 47.9344 19.4532 47.9719 10.9782C48.0094 3.60947 48 3.42197 47.8219 2.80322C47.6062 2.10009 47.0062 1.22822 46.4719 0.815716C46.275 0.665718 45.8812 0.440716 45.5812 0.300091L45.0469 0.0469666L37.4531 0.0282173C31.2469 0.0188408 29.7469 0.03759 29.2594 0.140717Z" fill="white" stroke="white"/>
<path id="Vector_2" d="M22.0781 20.7844C20.1844 20.9906 18.7594 22.3406 18.4594 24.1969C18.2906 25.2562 18.4969 26.1469 19.2187 27.5156C19.8 28.6125 20.0062 29.25 19.95 29.8031C19.7625 31.7719 17.3906 32.6344 15.9937 31.2562C15.8437 31.1062 15.6187 30.7594 15.4875 30.4875C15.1969 29.85 15.2344 29.2406 15.6 28.4625C16.0219 27.5719 15.7781 27 14.9906 27C14.5594 27 14.325 27.1969 14.025 27.8062C13.5094 28.8469 13.4719 30.0375 13.9219 31.1531C14.175 31.7906 14.175 31.8 13.9875 31.9969C13.5094 32.5219 13.4719 32.9812 13.8656 33.3844C14.25 33.7594 14.625 33.75 15.0656 33.3375L15.4125 33.0281L15.9 33.2531C16.6875 33.6094 17.325 33.7125 18.1312 33.5906C20.1937 33.3 21.6562 31.6594 21.6562 29.6437C21.6562 28.8094 21.4594 28.1812 20.7375 26.7281C20.1562 25.5656 20.1187 25.4344 20.1187 24.8531C20.1187 23.4937 21.1125 22.5 22.4719 22.5C23.1844 22.5094 23.6719 22.7344 24.1687 23.2969C24.9469 24.1875 24.9656 25.35 24.2062 26.325C24.0562 26.5219 23.9062 26.7656 23.8781 26.8875C23.7375 27.4594 24.2906 28.0125 24.8625 27.8906C25.35 27.7781 25.9406 27.0187 26.2594 26.0812C26.5781 25.1531 26.4469 23.6437 25.9875 22.8562C25.8375 22.6031 25.8469 22.5844 26.1375 22.2844C26.3719 22.0406 26.4375 21.9 26.4375 21.6C26.4375 20.8125 25.6312 20.5219 24.9469 21.075L24.5906 21.3656L24.1312 21.1406C23.6062 20.8781 22.6687 20.7187 22.0781 20.7844Z" fill="white" stroke="white"/>
<path id="Vector_3" d="M40.5281 29.4094C40.4062 29.5594 38.25 33.1875 35.7281 37.4907C33.2156 41.7844 31.0125 45.45 30.8343 45.6375C30.3843 46.0969 29.8781 46.3125 29.1937 46.3125C28.5562 46.3125 28.3218 46.2094 26.9625 45.3469C25.9875 44.7188 25.5843 44.6532 25.2187 45.0469C24.9281 45.3563 24.9281 45.8625 25.2187 46.1719C25.5375 46.5094 27.375 47.6532 27.8906 47.8313C28.4718 48.0282 29.775 48.0469 30.3843 47.8688C31.2187 47.6157 31.8656 47.1657 32.3906 46.4813C32.8593 45.8625 41.9062 30.3844 41.9718 30.0938C42.0656 29.5875 41.6906 29.1657 41.1187 29.1563C40.8375 29.1563 40.7062 29.2125 40.5281 29.4094Z" fill="white" stroke="white"/>
</g>
</g>
<defs>
<clipPath id="clip0_492_342">
<rect width="48" height="48" fill="white"/>
</clipPath>
</defs>
</svg>
