<svg width="48" height="48" viewBox="0 0 48 48" fill="none" xmlns="http://www.w3.org/2000/svg">
<g id="space-rocket_icon-icons.com_55296 1" clip-path="url(#clip0_404_272)">
<g id="Legs">
<g id="Group">
<path id="Vector" fill-rule="evenodd" clip-rule="evenodd" d="M28.4911 27.0013L23.9925 31.4999L20.9934 34.499V38.9976L16.4948 46.4953L19.4939 47.9948L29.9906 37.4981L28.4911 27.0013ZM20.9934 19.5037L10.4967 18.0042L-1.52588e-05 28.5009L1.49952 31.4999L8.99717 27.0013H13.4958L16.4948 24.0023L20.9934 19.5037Z" fill="#CCCCCC"/>
</g>
</g>
<g id="Flames">
<g id="Group_2">
<path id="Vector_2" d="M7.49766 32.9994C4.54433 37.309 0.0194948 42.6226 8.40984e-07 44.9956C-0.0157442 46.7973 1.18163 48.0105 2.99906 47.9947C5.41106 47.9745 10.505 43.4729 14.9953 40.497L7.49766 32.9994Z" fill="#FFCC66"/>
</g>
</g>
<g id="Flames_1_">
<g id="Group_3">
<path id="Vector_3" d="M11.9962 31.4999C9.04292 35.8095 2.99905 41.1231 2.99905 43.4961C2.99905 45.0639 3.14976 44.9957 4.49859 44.9957C6.91058 44.9957 12.0045 38.9743 16.4948 35.9985L11.9962 31.4999Z" fill="#ED7161"/>
</g>
</g>
<g id="Body_2_">
<g id="Group_4">
<path id="Vector_4" d="M44.9859 0.00973044C40.2729 0.301389 32.1365 0.862214 22.493 10.5065C15.3994 17.6 9.17637 27.9145 6.25903 34.7591L13.2821 41.7822C20.0885 38.8933 30.3348 32.6545 37.4883 25.5018C47.0695 15.9205 47.6154 7.75556 47.985 3.00879C48.1499 0.889955 46.9458 -0.111732 44.9859 0.00973044Z" fill="#387AA7"/>
</g>
</g>
<g id="Body_3_">
<g id="Group_5">
<path id="Vector_5" d="M44.9859 0.00973044C40.2729 0.301389 32.1365 0.862214 22.493 10.5065C16.7018 16.2969 11.4984 24.2324 8.18893 30.6789L17.3623 39.8523C23.7698 36.5518 31.6566 31.3334 37.4883 25.5018C47.0695 15.9205 47.6154 7.75556 47.985 3.00879C48.15 0.889955 46.9458 -0.111732 44.9859 0.00973044Z" fill="#48A0DC"/>
</g>
</g>
<g id="Glass">
<g id="Group_6">
<path id="Vector_6" d="M35.9888 18.0041C39.3014 18.0041 41.9869 15.3186 41.9869 12.0059C41.9869 8.69327 39.3014 6.00781 35.9888 6.00781C32.6761 6.00781 29.9906 8.69327 29.9906 12.0059C29.9906 15.3186 32.6761 18.0041 35.9888 18.0041Z" fill="#4D4D4D"/>
</g>
</g>
<g id="Glass_1_">
<g id="Group_7">
<path id="Vector_7" d="M35.9887 15.0051C37.6451 15.0051 38.9878 13.6624 38.9878 12.006C38.9878 10.3497 37.6451 9.00696 35.9887 9.00696C34.3324 9.00696 32.9897 10.3497 32.9897 12.006C32.9897 13.6624 34.3324 15.0051 35.9887 15.0051Z" fill="white"/>
</g>
</g>
</g>
<defs>
<clipPath id="clip0_404_272">
<rect width="48" height="47.9948" fill="white"/>
</clipPath>
</defs>
</svg>
