<svg width="48" height="48" viewBox="0 0 48 48" fill="none" xmlns="http://www.w3.org/2000/svg">
<g id="arrow_click_cursor_interface_internet_pointer_user_icon_127095 1">
<g id="Click">
<path id="Vector" d="M40.5 41.9999C40.3026 42.0011 40.1069 41.9632 39.9241 41.8886C39.7414 41.8139 39.5752 41.7039 39.435 41.5649L27.435 29.5649C27.2951 29.4251 27.1842 29.259 27.1085 29.0763C27.0328 28.8936 26.9939 28.6977 26.9939 28.4999C26.9939 28.3021 27.0328 28.1063 27.1085 27.9235C27.1842 27.7408 27.2951 27.5748 27.435 27.4349C27.5749 27.2951 27.7409 27.1841 27.9236 27.1084C28.1064 27.0327 28.3022 26.9938 28.5 26.9938C28.6978 26.9938 28.8936 27.0327 29.0764 27.1084C29.2591 27.1841 29.4251 27.2951 29.565 27.4349L41.565 39.4349C41.7056 39.5744 41.8172 39.7403 41.8933 39.923C41.9695 40.1058 42.0087 40.3019 42.0087 40.4999C42.0087 40.6979 41.9695 40.894 41.8933 41.0768C41.8172 41.2596 41.7056 41.4255 41.565 41.5649C41.4248 41.7039 41.2586 41.8139 41.0759 41.8886C40.8931 41.9632 40.6974 42.0011 40.5 41.9999Z" fill="#BCC7D8"/>
<path id="Vector_2" d="M18 13.5C17.6022 13.5 17.2206 13.342 16.9393 13.0607C16.658 12.7794 16.5 12.3978 16.5 12V7.5C16.5 7.10218 16.658 6.72064 16.9393 6.43934C17.2206 6.15804 17.6022 6 18 6C18.3978 6 18.7794 6.15804 19.0607 6.43934C19.342 6.72064 19.5 7.10218 19.5 7.5V12C19.5 12.3978 19.342 12.7794 19.0607 13.0607C18.7794 13.342 18.3978 13.5 18 13.5Z" fill="#0593FF"/>
<path id="Vector_3" d="M13.32 14.82C13.1226 14.8212 12.9269 14.7833 12.7441 14.7087C12.5614 14.6341 12.3952 14.5241 12.255 14.385L9.075 11.19C8.82926 10.9031 8.70085 10.534 8.71543 10.1565C8.73001 9.77895 8.88651 9.42084 9.15365 9.1537C9.42079 8.88655 9.7789 8.73006 10.1564 8.71547C10.5339 8.70089 10.903 8.8293 11.19 9.07504L14.385 12.255C14.5256 12.3945 14.6372 12.5604 14.7133 12.7432C14.7895 12.926 14.8287 13.122 14.8287 13.32C14.8287 13.5181 14.7895 13.7141 14.7133 13.8969C14.6372 14.0797 14.5256 14.2456 14.385 14.385C14.2448 14.5241 14.0786 14.6341 13.8959 14.7087C13.7131 14.7833 13.5174 14.8212 13.32 14.82Z" fill="#0593FF"/>
<path id="Vector_4" d="M12 19.5H7.5C7.10218 19.5 6.72064 19.342 6.43934 19.0607C6.15804 18.7794 6 18.3978 6 18C6 17.6022 6.15804 17.2206 6.43934 16.9393C6.72064 16.658 7.10218 16.5 7.5 16.5H12C12.3978 16.5 12.7794 16.658 13.0607 16.9393C13.342 17.2206 13.5 17.6022 13.5 18C13.5 18.3978 13.342 18.7794 13.0607 19.0607C12.7794 19.342 12.3978 19.5 12 19.5Z" fill="#0593FF"/>
<path id="Vector_5" d="M10.14 27.3599C9.75175 27.3825 9.3699 27.2534 9.07499 26.9999C8.79561 26.7189 8.6388 26.3387 8.6388 25.9424C8.6388 25.5461 8.79561 25.166 9.07499 24.8849L12.255 21.6899C12.5374 21.4075 12.9205 21.2488 13.32 21.2488C13.7194 21.2488 14.1025 21.4075 14.385 21.6899C14.6674 21.9724 14.8261 22.3555 14.8261 22.7549C14.8261 23.1544 14.6674 23.5375 14.385 23.8199L11.19 26.9999C10.8989 27.2498 10.5231 27.3786 10.14 27.3599Z" fill="#0593FF"/>
<path id="Vector_6" d="M22.68 14.8199C22.4826 14.821 22.2869 14.7832 22.1041 14.7085C21.9214 14.6339 21.7552 14.5239 21.615 14.3849C21.4744 14.2454 21.3628 14.0795 21.2867 13.8968C21.2105 13.714 21.1713 13.5179 21.1713 13.3199C21.1713 13.1219 21.2105 12.9258 21.2867 12.743C21.3628 12.5602 21.4744 12.3943 21.615 12.2549L24.81 9.07489C25.0905 8.78447 25.4748 8.61737 25.8785 8.61034C26.2821 8.60331 26.6721 8.75692 26.9625 9.03739C27.2529 9.31785 27.42 9.7022 27.427 10.1059C27.4341 10.5095 27.2805 10.8995 27 11.1899L23.745 14.3849C23.6048 14.5239 23.4386 14.6339 23.2559 14.7085C23.0731 14.7832 22.8774 14.821 22.68 14.8199Z" fill="#0593FF"/>
<path id="Vector_7" d="M39.51 24.09L18.51 16.59C18.2421 16.4933 17.9522 16.475 17.6743 16.537C17.3963 16.599 17.1417 16.7389 16.9403 16.9403C16.739 17.1417 16.5991 17.3963 16.537 17.6742C16.475 17.9522 16.4934 18.2421 16.59 18.51L24.09 39.51C24.1948 39.7999 24.3864 40.0505 24.6387 40.2276C24.891 40.4047 25.1917 40.4998 25.5 40.5C25.8187 40.4894 26.1258 40.3776 26.3767 40.1807C26.6275 39.9838 26.8091 39.7121 26.895 39.405L29.67 29.715L39.405 27C39.7092 26.9129 39.9781 26.7319 40.1733 26.4828C40.3684 26.2337 40.4797 25.9293 40.4914 25.6131C40.503 25.2969 40.4144 24.9851 40.2381 24.7223C40.0619 24.4595 39.807 24.2592 39.51 24.15V24.09Z" fill="#D8E1EF"/>
</g>
</g>
</svg>
