<svg width="16" height="16" viewBox="0 0 16 16" fill="none" xmlns="http://www.w3.org/2000/svg">
<rect width="16" height="16" rx="2" fill="white"/>
<g clip-path="url(#clip0_129_5)">
<path d="M3.35132 9.78465H2.57373L3.75855 6.33423H4.69366L5.87681 9.78465H5.09922L4.23951 7.1227H4.2127L3.35132 9.78465ZM3.30272 8.4284H5.13944V8.99786H3.30272V8.4284ZM6.2899 9.78465V6.33423H8.60257V6.93569H7.01554V7.75787H8.48357V8.35933H7.01554V9.18318H8.60927V9.78465H6.2899ZM9.90511 6.33423V9.78465H9.17948V6.33423H9.90511ZM11.1825 6.33423L11.8746 7.5102H11.9014L12.5969 6.33423H13.4164L12.369 8.05944L13.4399 9.78465H12.6053L11.9014 8.60699H11.8746L11.1708 9.78465H10.3396L11.4138 8.05944L10.3597 6.33423H11.1825Z" fill="#0D99FF"/>
</g>
<defs>
<clipPath id="clip0_129_5">
<rect width="11.0769" height="3.56923" fill="white" transform="translate(2.46143 6.21533)"/>
</clipPath>
</defs>
</svg>
