<svg width="128" height="128" viewBox="0 0 128 128" fill="none" xmlns="http://www.w3.org/2000/svg">
<rect width="128" height="128" rx="22" fill="white"/>
<g clip-path="url(#clip0_129_2)">
<path d="M26.8115 78.277H20.5908L30.0694 50.6736H37.5503L47.0154 78.277H40.7947L33.917 56.9814H33.7026L26.8115 78.277ZM26.4227 67.427H41.1165V71.9827H26.4227V67.427ZM50.3202 78.277V50.6736H68.8215V55.4853H56.1253V62.0627H67.8696V66.8744H56.1253V73.4652H68.8751V78.277H50.3202ZM79.2419 50.6736V78.277H73.4368V50.6736H79.2419ZM89.4611 50.6736L94.998 60.0814H95.2125L100.776 50.6736H107.332L98.953 64.4753L107.52 78.277H100.843L95.2125 68.8557H94.998L89.3672 78.277H82.7175L91.3112 64.4753L82.8784 50.6736H89.4611Z" fill="#0D99FF"/>
</g>
<defs>
<clipPath id="clip0_129_2">
<rect width="88.6154" height="28.5538" fill="white" transform="translate(19.6924 49.7231)"/>
</clipPath>
</defs>
</svg>
